<svg id="Layer_1" data-name="Layer 1" xmlns="http://www.w3.org/2000/svg" viewBox="0 0 148.61 52.75"><defs><style>.cls-1{fill:#838383;}.cls-2{fill:#5d1ea5;}.cls-3{fill:#f2f2f2;}.cls-4{fill:#fff;}</style></defs><path class="cls-1" d="M65.61,41c.12-.49.17-1-.39-1a.61.61,0,0,0-.67.51c-.09.42.14.58.42.78a6.48,6.48,0,0,1,1,.9,1.23,1.23,0,0,1,.22,1.15,2,2,0,0,1-2,1.59c-1.23,0-1.52-.69-1.31-1.67l.08-.41h1l-.06.32c-.14.54-.06.93.44.93a.73.73,0,0,0,.78-.65.65.65,0,0,0-.26-.72c-.44-.42-1-.72-1.34-1.27a1.33,1.33,0,0,1-.09-.84,1.74,1.74,0,0,1,1.92-1.45c1.63,0,1.32,1.26,1.21,1.8Z"/><path class="cls-1" d="M67.43,42.12a1.65,1.65,0,0,1,1.72-1.53c1.32,0,1.32.69,1.07,1.82l-.11.56H68.2l-.12.6c-.11.54.07.64.36.64s.51-.26.6-.78h1a1.57,1.57,0,0,1-1.64,1.51c-1.1,0-1.44-.52-1.16-1.73Zm1.88.11.08-.36c.08-.41,0-.55-.38-.55s-.54.37-.62.75l0,.16Z"/><path class="cls-1" d="M72.88,42.14l.11-.46c0-.23-.06-.36-.26-.36-.37,0-.46.42-.56.93l-.2,1c-.2.81-.13,1,.14,1s.36-.28.47-.61l.08-.38h1l-.08.38a1.47,1.47,0,0,1-1.59,1.34c-.84,0-1.23-.44-1-1.54l.28-1.34c.24-1.16.88-1.47,1.6-1.47,1,0,1.19.6,1,1.22l-.07.33Z"/><path class="cls-1" d="M76.13,44.22h0a1.11,1.11,0,0,1-1,.72c-.75,0-.84-.38-.69-1.07l.67-3.17h1l-.6,2.83a1.15,1.15,0,0,0,0,.55.29.29,0,0,0,.27.13c.44,0,.54-.5.61-.83l.57-2.68h1l-.88,4.13H76Z"/><path class="cls-1" d="M79.67,41.44h0a1.61,1.61,0,0,1,.5-.59,1,1,0,0,1,.63-.22l-.24,1.13a.88.88,0,0,0-1.09.69L79,44.83H78l.88-4.13h.92Z"/><path class="cls-1" d="M81.18,42.12a1.66,1.66,0,0,1,1.72-1.53c1.32,0,1.32.69,1.08,1.82l-.12.56H82l-.12.6c-.11.54.07.64.36.64s.51-.26.61-.78h1a1.57,1.57,0,0,1-1.64,1.51c-1.1,0-1.44-.52-1.16-1.73Zm1.88.11.08-.36c.08-.41,0-.55-.38-.55s-.54.37-.62.75l0,.16Z"/><path class="cls-1" d="M88.31,41.13h0a1.2,1.2,0,0,1,1-.54c.35,0,.79.15.77.54h0a1.19,1.19,0,0,1,.46-.41,1.4,1.4,0,0,1,.6-.13c.71,0,.92.44.83.88l-.72,3.36h-1L90.93,42c.09-.37.12-.74-.3-.72s-.55.31-.65.8l-.58,2.71h-1l.6-2.84c.08-.36.12-.67-.32-.67s-.54.34-.64.8l-.58,2.71h-1l.88-4.13h1Z"/><path class="cls-1" d="M92.93,42.12a1.64,1.64,0,0,1,1.71-1.53c1.33,0,1.32.69,1.08,1.82L95.6,43H93.7l-.13.6c-.11.54.08.64.36.64s.51-.26.61-.78h.95a1.57,1.57,0,0,1-1.64,1.51c-1.1,0-1.43-.52-1.16-1.73Zm1.87.11.08-.36c.08-.41,0-.55-.38-.55s-.53.37-.61.75l0,.16Z"/><path class="cls-1" d="M98.12,44.39h0a1.07,1.07,0,0,1-.94.55c-.81,0-.82-.73-.7-1.39l.32-1.49c.26-1.14.69-1.45,1.3-1.47a.65.65,0,0,1,.74.53h0a2.46,2.46,0,0,1,0-.37l.3-1.41h1L99,44.83H98Zm.46-2.15c.08-.33.19-.92-.25-.92s-.49.39-.6.8l-.3,1.38c-.06.4,0,.71.27.71s.52-.26.61-.73Z"/><path class="cls-1" d="M100.2,44.83l.87-4.13h1l-.88,4.13Zm1-4.63.18-.86h1l-.18.86Z"/><path class="cls-1" d="M104.44,42.14l.11-.46c0-.23,0-.36-.26-.36-.37,0-.45.42-.56.93l-.2,1c-.2.81-.13,1,.15,1s.35-.28.46-.61l.08-.38h1l-.08.38a1.46,1.46,0,0,1-1.59,1.34c-.84,0-1.23-.44-1-1.54l.29-1.34c.23-1.16.87-1.47,1.59-1.47,1,0,1.19.6,1,1.22l-.07.33Z"/><path class="cls-1" d="M107.63,44.83a.88.88,0,0,1,0-.42h0a1.62,1.62,0,0,1-.46.39,1,1,0,0,1-.49.14c-.77,0-1-.38-.84-1.23s.91-1.18,1.73-1.48c.44-.17.62-.36.61-.69s-.14-.22-.4-.22c-.43,0-.56.23-.63.61h-.91A1.5,1.5,0,0,1,108,40.59c1.3,0,1.23.68,1.11,1.23l-.52,2.43a1.93,1.93,0,0,0,0,.58Zm.33-2.17c-.27.16-.58.32-.88.53a.76.76,0,0,0-.27.49c-.06.32,0,.53.34.53.56,0,.61-.71.72-1.1Z"/><path class="cls-1" d="M109.7,44.83l1.16-5.49h1l-1.16,5.49Z"/><path class="cls-1" d="M115.62,41.13h0a1.2,1.2,0,0,1,1-.54c.35,0,.79.15.77.54h0a1.27,1.27,0,0,1,.46-.41,1.41,1.41,0,0,1,.61-.13c.7,0,.91.44.82.88l-.71,3.36h-1l.6-2.79c.08-.37.11-.74-.3-.72s-.55.31-.66.8l-.57,2.71h-1l.6-2.84c.08-.36.12-.67-.32-.67s-.54.34-.64.8l-.57,2.71h-1l.88-4.13h1Z"/><path class="cls-1" d="M120.24,42.12A1.65,1.65,0,0,1,122,40.59c1.33,0,1.32.69,1.08,1.82l-.12.56H121l-.12.6c-.11.54.07.64.35.64s.52-.26.61-.78h1a1.57,1.57,0,0,1-1.64,1.51c-1.1,0-1.43-.52-1.15-1.73Zm1.88.11.08-.36c.08-.41,0-.55-.38-.55s-.54.37-.62.75l0,.16Z"/><path class="cls-1" d="M124.58,43.47c-.24.76.06.74.28.74a.47.47,0,0,0,.49-.46c0-.23-.21-.37-.36-.49l-.45-.36a1.21,1.21,0,0,1-.5-1.3c.13-.64.71-1,1.63-1s1.24.49,1,1.37h-1a.69.69,0,0,0,0-.49c0-.1-.15-.15-.32-.15a.45.45,0,0,0-.48.34c0,.24.11.35.26.48l.67.53a1.09,1.09,0,0,1,.47.81c-.07.72-.4,1.46-1.72,1.46-.5,0-1.41-.21-1-1.47Z"/><path class="cls-1" d="M128,43.47c-.24.76.06.74.28.74a.46.46,0,0,0,.49-.46c0-.23-.2-.37-.36-.49L128,42.9a1.21,1.21,0,0,1-.51-1.3c.13-.64.72-1,1.64-1s1.24.49,1,1.37h-.95a.76.76,0,0,0,0-.49.33.33,0,0,0-.32-.15.45.45,0,0,0-.48.34c0,.24.1.35.26.48l.66.53a1.1,1.1,0,0,1,.48.81,1.49,1.49,0,0,1-1.72,1.46c-.51,0-1.41-.21-1-1.47Z"/><path class="cls-1" d="M131,42.12a1.65,1.65,0,0,1,1.71-1.53c1.33,0,1.32.69,1.08,1.82l-.12.56h-1.9l-.13.6c-.11.54.08.64.36.64s.52-.26.61-.78h1a1.57,1.57,0,0,1-1.64,1.51c-1.1,0-1.43-.52-1.15-1.73Zm1.87.11.08-.36c.09-.41,0-.55-.38-.55s-.53.37-.61.75l0,.16Z"/><path class="cls-1" d="M136,41.13h0a1.12,1.12,0,0,1,1-.54c.54,0,.92.32.72,1.06l-.67,3.18h-.95l.58-2.75c.09-.4.1-.67-.25-.68s-.56.32-.63.76l-.57,2.67h-1l.87-4.13h1Z"/><path class="cls-1" d="M139,45.29a.16.16,0,0,0,.07.19.6.6,0,0,0,.29.06c.4,0,.54-.33.6-.65l.11-.47v0a1.14,1.14,0,0,1-1,.54c-.81,0-.81-.72-.7-1.38l.32-1.49c.26-1.14.69-1.46,1.3-1.48.44,0,.66.16.72.54h0l.09-.43h.95l-.84,4A1.67,1.67,0,0,1,139,46.23c-.62,0-1.1-.24-1-.94Zm1.23-4c-.44,0-.48.39-.6.8l-.29,1.38c-.07.4,0,.71.26.71s.52-.26.62-.73l.26-1.24C140.54,41.91,140.65,41.32,140.2,41.32Z"/><path class="cls-1" d="M142.5,42.12a1.64,1.64,0,0,1,1.71-1.53c1.33,0,1.32.69,1.08,1.82l-.12.56h-1.9l-.13.6c-.11.54.08.64.36.64s.51-.26.61-.78h.95a1.57,1.57,0,0,1-1.64,1.51c-1.1,0-1.44-.52-1.16-1.73Zm1.87.11.08-.36c.08-.41,0-.55-.38-.55s-.53.37-.61.75l0,.16Z"/><path class="cls-1" d="M147.46,41.44h0a1.72,1.72,0,0,1,.5-.59,1,1,0,0,1,.64-.22l-.24,1.13a.89.89,0,0,0-1.1.69l-.5,2.38h-1l.88-4.13h.91Z"/><path class="cls-2" d="M78.47,29.57c-.06.17-.71.45-2,.83a16.24,16.24,0,0,1-4.45.64,13.07,13.07,0,0,1-5.26-.89,5.69,5.69,0,0,1-2.87-2.57,9,9,0,0,1-.88-4.22,25.45,25.45,0,0,1,.54-4.78,19.07,19.07,0,0,1,2.07-5.81A9.65,9.65,0,0,1,69.41,9.1a13,13,0,0,1,6-1.36,21,21,0,0,1,3.86.33c1.12.23,1.92.41,2.4.56l.3,3.89a10.21,10.21,0,0,0-2.11-1.11,9.8,9.8,0,0,0-3.86-.66A5.21,5.21,0,0,0,71.38,13a14.54,14.54,0,0,0-2.07,5.6,28.72,28.72,0,0,0-.5,4.58c0,3.12,1.12,4.75,3.34,4.88A15.3,15.3,0,0,0,76,27.62a10.8,10.8,0,0,0,2.52-1,4.77,4.77,0,0,0,.84-.53h0Z"/><path class="cls-2" d="M91,14.35a10.12,10.12,0,0,1,3.8.6,4.16,4.16,0,0,1,2.14,1.84,6.44,6.44,0,0,1,.67,3.08,15.42,15.42,0,0,1-.29,2.75,15.08,15.08,0,0,1-1.09,3.76A8.13,8.13,0,0,1,94.31,29a7.22,7.22,0,0,1-2.72,1.54,12.43,12.43,0,0,1-3.69.5A7.46,7.46,0,0,1,83,29.63a5.35,5.35,0,0,1-1.6-4.3,19.29,19.29,0,0,1,.24-2.66Q83.21,14.35,91,14.35Zm-4.72,8.27a23.1,23.1,0,0,0-.29,3c0,2.07.85,3.1,2.55,3.1a3,3,0,0,0,2.28-.84,4.8,4.8,0,0,0,1.2-2,27.61,27.61,0,0,0,.72-3.14,17.83,17.83,0,0,0,.38-3.11c0-2-.82-3-2.45-3a3.33,3.33,0,0,0-3,1.66A13,13,0,0,0,86.23,22.62Z"/><path class="cls-2" d="M114.92,18.23l-2.21,12.62h-3.45l2.11-12a1.84,1.84,0,0,0-.64-1.58,3.58,3.58,0,0,0-2.16-.49,4,4,0,0,0-2.37,1,4.9,4.9,0,0,0-1,1.26L103.1,30.85H98.47l2.91-16.41H106l-.25,1.34.72-.43a7.63,7.63,0,0,1,1.72-.69,8.7,8.7,0,0,1,2.44-.31Q114.92,14.35,114.92,18.23Z"/><path class="cls-2" d="M121.29,31.53,116.7,14.44h4.48l2.37,8.82L129,14.44h2.8Z"/><path class="cls-2" d="M139.75,30.85l.3-1.72a4.23,4.23,0,0,1-1.48,1.1,8.48,8.48,0,0,1-3.85.67,6.26,6.26,0,0,1-3.28-1,3,3,0,0,1-1.29-2.69c0-.13,0-.42.1-.89a5.26,5.26,0,0,1,2.43-3.71,12.31,12.31,0,0,1,5.59-1.51,4.93,4.93,0,0,0,2.8-.94,2.25,2.25,0,0,0,1-1.76,1.65,1.65,0,0,0-.67-1.34,3,3,0,0,0-1.94-.54,8.93,8.93,0,0,0-4.62,1.05,10.36,10.36,0,0,0-2.38,1.76l1.29-3.26a3.69,3.69,0,0,1,.84-.51,11,11,0,0,1,2.24-.81,12.32,12.32,0,0,1,3.27-.39c4.3,0,6.45,1.27,6.45,3.83a7.29,7.29,0,0,1-.1.84l-2.07,11.78Zm-1.82-2.56a4.2,4.2,0,0,0,2.11-1,1.68,1.68,0,0,0,.5-.94l.69-3.74L141,23a2.28,2.28,0,0,1-.81.58,5.48,5.48,0,0,1-1.73.43,9.67,9.67,0,0,0-3.21.87,2.41,2.41,0,0,0-1.28,2q0,1.68,2.37,1.68A6.35,6.35,0,0,0,137.93,28.29Z"/><rect class="cls-2" width="52.75" height="52.75" rx="7.33"/><path class="cls-3" d="M45.42,50.75H7.33A5.33,5.33,0,0,1,2,45.42V7.33A5.33,5.33,0,0,1,7.33,2H45.42a5.33,5.33,0,0,1,5.33,5.33V45.42A5.33,5.33,0,0,1,45.42,50.75ZM7.33,3A4.33,4.33,0,0,0,3,7.33V45.42a4.33,4.33,0,0,0,4.33,4.33H45.42a4.33,4.33,0,0,0,4.33-4.33V7.33A4.33,4.33,0,0,0,45.42,3Z"/><path class="cls-4" d="M25.7,36.88c-.05.17-.7.44-1.95.83a16.74,16.74,0,0,1-4.46.63A12.94,12.94,0,0,1,14,37.45a5.77,5.77,0,0,1-2.87-2.57,9.13,9.13,0,0,1-.87-4.22,25.36,25.36,0,0,1,.54-4.77,19.24,19.24,0,0,1,2.07-5.82,9.43,9.43,0,0,1,3.75-3.66,12.74,12.74,0,0,1,6.05-1.36,20.2,20.2,0,0,1,3.86.33,24.1,24.1,0,0,1,2.39.56l.3,3.88a11,11,0,0,0-2.1-1.1,9.87,9.87,0,0,0-3.86-.66,5.22,5.22,0,0,0-4.68,2.23,14.42,14.42,0,0,0-2.07,5.6,28.5,28.5,0,0,0-.49,4.58c0,3.12,1.11,4.74,3.34,4.88a14.73,14.73,0,0,0,3.84-.43,9.68,9.68,0,0,0,2.52-1,5.23,5.23,0,0,0,.84-.52h0Z"/><path class="cls-4" d="M33.12,38.84,28.53,21.75H33l2.37,8.81,5.47-8.81h2.8Z"/></svg>