<svg id="Layer_1" data-name="Layer 1" xmlns="http://www.w3.org/2000/svg" viewBox="0 0 155.87 52"><defs><style>.cls-1{fill:#213766;}.cls-2{opacity:0.98;}.cls-3{fill:#7d7d7d;}.cls-4{fill:#fff;}</style></defs><path class="cls-1" d="M86.36,14.17a7,7,0,0,1-.17,1.31,5.35,5.35,0,0,1-.42,1.33c-.17.33-.36.49-.57.49a.88.88,0,0,1-.54-.28,6.39,6.39,0,0,0-.82-.63,7.09,7.09,0,0,0-1.29-.62,5.83,5.83,0,0,0-2-.29,5.38,5.38,0,0,0-2.36.52,6.82,6.82,0,0,0-1.91,1.37,9.07,9.07,0,0,0-1.47,1.95,12.77,12.77,0,0,0-1,2.29A14.75,14.75,0,0,0,73.2,24a12.46,12.46,0,0,0-.2,2.19,6.93,6.93,0,0,0,.3,2.15,4.21,4.21,0,0,0,.88,1.54,3.6,3.6,0,0,0,1.42.92,5.59,5.59,0,0,0,1.89.31,7.36,7.36,0,0,0,2.13-.27,8.76,8.76,0,0,0,1.5-.57c.41-.21.76-.41,1-.58a1.38,1.38,0,0,1,.75-.26.29.29,0,0,1,.3.16,1.17,1.17,0,0,1,.08.47,3.18,3.18,0,0,1,0,.36c0,.17-.06.35-.09.56s-.08.42-.12.66-.1.46-.16.66a5.15,5.15,0,0,1-.2.56,1.57,1.57,0,0,1-.31.45,3.91,3.91,0,0,1-.75.5,8.73,8.73,0,0,1-1.37.57,14.14,14.14,0,0,1-1.81.44,11.53,11.53,0,0,1-2.17.19,10.86,10.86,0,0,1-3.44-.51,6.71,6.71,0,0,1-2.6-1.54,6.8,6.8,0,0,1-1.64-2.59A10.34,10.34,0,0,1,68,26.71a18.57,18.57,0,0,1,1.34-6.82,16.76,16.76,0,0,1,1.7-3.18,12.46,12.46,0,0,1,2.44-2.63,11.68,11.68,0,0,1,3.21-1.8,11.4,11.4,0,0,1,4-.66,10.19,10.19,0,0,1,2.32.25,8.2,8.2,0,0,1,1.91.68,4.24,4.24,0,0,1,1.13.76A1.18,1.18,0,0,1,86.36,14.17Z"/><path class="cls-1" d="M102.38,23.67a15.57,15.57,0,0,1-.23,2.59,13.5,13.5,0,0,1-.75,2.6,11.39,11.39,0,0,1-1.3,2.37,8.87,8.87,0,0,1-1.91,2,8.67,8.67,0,0,1-2.54,1.34,9.93,9.93,0,0,1-3.24.49,10.23,10.23,0,0,1-3-.41,5.52,5.52,0,0,1-2.14-1.21,4.88,4.88,0,0,1-1.28-2,7.78,7.78,0,0,1-.42-2.66,14.6,14.6,0,0,1,.24-2.59,13,13,0,0,1,.74-2.59,12.07,12.07,0,0,1,1.3-2.39,9.1,9.1,0,0,1,1.91-2,8.82,8.82,0,0,1,2.55-1.33,11.2,11.2,0,0,1,6.28-.08,5.62,5.62,0,0,1,2.15,1.2A5,5,0,0,1,102,21,7.88,7.88,0,0,1,102.38,23.67Zm-4.54.3a5.19,5.19,0,0,0-.15-1.31,2.57,2.57,0,0,0-.49-1,2.22,2.22,0,0,0-.88-.6,3.54,3.54,0,0,0-1.3-.21,3.48,3.48,0,0,0-1.57.34,4.35,4.35,0,0,0-1.26.92,6.08,6.08,0,0,0-1,1.34,8.68,8.68,0,0,0-.66,1.6,10.19,10.19,0,0,0-.39,1.7,12.13,12.13,0,0,0-.12,1.66,5.3,5.3,0,0,0,.15,1.31,2.34,2.34,0,0,0,.49,1,2.26,2.26,0,0,0,.87.6,3.6,3.6,0,0,0,1.31.21,3.51,3.51,0,0,0,1.57-.34,4.34,4.34,0,0,0,1.25-.93,6.22,6.22,0,0,0,1-1.34,9.93,9.93,0,0,0,.67-1.61,11.66,11.66,0,0,0,.38-1.71A11.91,11.91,0,0,0,97.84,24Z"/><path class="cls-1" d="M120.34,21.9a8.47,8.47,0,0,1-.08,1.23c-.05.41-.11.83-.2,1.26L118.12,34a.62.62,0,0,1-.16.31,1,1,0,0,1-.41.22,3.38,3.38,0,0,1-.7.13,10.63,10.63,0,0,1-1.07,0,10.29,10.29,0,0,1-1.06,0,2.63,2.63,0,0,1-.64-.13.56.56,0,0,1-.3-.22.41.41,0,0,1,0-.31l1.89-9.35a8.1,8.1,0,0,0,.13-.86c0-.29,0-.55,0-.77a2.23,2.23,0,0,0-.34-1.29,1.23,1.23,0,0,0-1.12-.51,3,3,0,0,0-1.49.45,6.22,6.22,0,0,0-1.47,1.24,8.78,8.78,0,0,0-1.23,1.82,8.05,8.05,0,0,0-.77,2.21L108,34a.62.62,0,0,1-.16.31,1,1,0,0,1-.41.22,3.36,3.36,0,0,1-.71.13c-.29,0-.64,0-1.06,0a10.29,10.29,0,0,1-1.06,0,2.84,2.84,0,0,1-.65-.13.49.49,0,0,1-.3-.22.46.46,0,0,1,0-.31l3.13-15.61a.6.6,0,0,1,.15-.31.74.74,0,0,1,.35-.21,3.45,3.45,0,0,1,.61-.12,7.58,7.58,0,0,1,.9-.05,7,7,0,0,1,.89.05,2.47,2.47,0,0,1,.53.12.41.41,0,0,1,.25.21.53.53,0,0,1,0,.31L109.9,21a7,7,0,0,1,1-1.25,7.61,7.61,0,0,1,1.41-1.15,8.37,8.37,0,0,1,1.73-.83,5.82,5.82,0,0,1,2-.32,5.21,5.21,0,0,1,2.06.36,3.44,3.44,0,0,1,1.34,1,3.59,3.59,0,0,1,.75,1.42A6.44,6.44,0,0,1,120.34,21.9Z"/><path class="cls-1" d="M138.47,18.3a3,3,0,0,1-.05.47,5.39,5.39,0,0,1-.16.6c-.43,1.26-.91,2.52-1.43,3.78s-1.11,2.52-1.74,3.76-1.3,2.44-2,3.63A40.52,40.52,0,0,1,130.69,34a1.55,1.55,0,0,1-.42.39,1.93,1.93,0,0,1-.6.23,5.57,5.57,0,0,1-.82.1h-1.1c-.64,0-1.15,0-1.52,0a3.55,3.55,0,0,1-.86-.15.67.67,0,0,1-.4-.29,1,1,0,0,1-.12-.46l-1.84-14c0-.18,0-.36,0-.52s0-.32,0-.46a1.25,1.25,0,0,1,.08-.53.6.6,0,0,1,.31-.3,2.34,2.34,0,0,1,.68-.16,9.5,9.5,0,0,1,1.2-.06c.47,0,.83,0,1.1,0a2,2,0,0,1,.62.12.48.48,0,0,1,.29.24,1,1,0,0,1,.09.36l1.33,11.45v.44l.09-.16c.59-.9,1.13-1.8,1.61-2.71s.94-1.84,1.35-2.8.8-1.94,1.16-3,.72-2.11,1.07-3.25a.76.76,0,0,1,.19-.37,1.15,1.15,0,0,1,.43-.23,3.26,3.26,0,0,1,.74-.12c.29,0,.66,0,1.11,0s.78,0,1.06,0a3.19,3.19,0,0,1,.62.1.59.59,0,0,1,.3.18A.45.45,0,0,1,138.47,18.3Z"/><path class="cls-1" d="M152.33,34a.72.72,0,0,1-.55.53,5.73,5.73,0,0,1-1.55.15c-.36,0-.66,0-.88,0a2.12,2.12,0,0,1-.55-.11.54.54,0,0,1-.28-.21.51.51,0,0,1,0-.33l.49-2.5a5,5,0,0,1-.84,1.18,7,7,0,0,1-1.37,1.13,7.79,7.79,0,0,1-1.74.84,5.93,5.93,0,0,1-2,.33,4.91,4.91,0,0,1-2.33-.49,4,4,0,0,1-1.49-1.32,5.38,5.38,0,0,1-.79-1.9,10.12,10.12,0,0,1-.24-2.24,15.19,15.19,0,0,1,.21-2.4,16.48,16.48,0,0,1,.65-2.6,13.86,13.86,0,0,1,1.12-2.49,9.27,9.27,0,0,1,1.63-2.12A7.42,7.42,0,0,1,144,18a6.71,6.71,0,0,1,2.79-.55,5.36,5.36,0,0,1,2.57.6,5.82,5.82,0,0,1,2,1.76l.28-1.38a.72.72,0,0,1,.55-.53,5.64,5.64,0,0,1,1.55-.16,6.81,6.81,0,0,1,.87.05,2.42,2.42,0,0,1,.55.12.43.43,0,0,1,.27.21.46.46,0,0,1,0,.31Zm-2.17-10.95a4.62,4.62,0,0,0-1.36-1.44,3.09,3.09,0,0,0-1.72-.48,2.72,2.72,0,0,0-1.35.35,3.81,3.81,0,0,0-1.08.94,6.85,6.85,0,0,0-.83,1.35,11,11,0,0,0-.6,1.6,13.53,13.53,0,0,0-.35,1.68,13,13,0,0,0-.11,1.57,6.3,6.3,0,0,0,.08,1,2.38,2.38,0,0,0,.29.84,1.59,1.59,0,0,0,.56.59,1.7,1.7,0,0,0,.89.22,3.12,3.12,0,0,0,1.57-.47,6.06,6.06,0,0,0,1.51-1.26,8.89,8.89,0,0,0,1.23-1.85,8.71,8.71,0,0,0,.78-2.27Z"/><g class="cls-2"><path class="cls-1" d="M68.94,40.31s0,0,0,.06a.22.22,0,0,1,0,.08s0,.06,0,.09l0,.08,0,.05a.06.06,0,0,1,0,0,.19.19,0,0,1-.11,0l-.18-.1-.26-.1a1.23,1.23,0,0,0-.35-.05,1.12,1.12,0,0,0-.38.07.75.75,0,0,0-.28.18.67.67,0,0,0-.16.25.8.8,0,0,0-.06.3.51.51,0,0,0,.07.28.91.91,0,0,0,.18.21,1.2,1.2,0,0,0,.26.18l.3.18a2.9,2.9,0,0,1,.29.19,1.2,1.2,0,0,1,.26.24,1.17,1.17,0,0,1,.19.3,1.27,1.27,0,0,1,.06.41,1.39,1.39,0,0,1-.12.57,1.31,1.31,0,0,1-.36.46,1.85,1.85,0,0,1-.55.32,2.38,2.38,0,0,1-.73.11,2.73,2.73,0,0,1-.41,0l-.33-.1a1.27,1.27,0,0,1-.26-.11.73.73,0,0,1-.15-.11.17.17,0,0,1,0-.13v-.06s0-.06,0-.09l0-.09,0-.08s0-.05,0-.06a.05.05,0,0,1,0,0,.24.24,0,0,1,.14.06l.22.12a1.42,1.42,0,0,0,.3.13,1.64,1.64,0,0,0,.41,0,1.25,1.25,0,0,0,.45-.07.89.89,0,0,0,.33-.19.69.69,0,0,0,.2-.28.77.77,0,0,0,.08-.34.61.61,0,0,0-.07-.28,1.24,1.24,0,0,0-.18-.22l-.26-.18-.29-.17a2.9,2.9,0,0,1-.29-.19,1.48,1.48,0,0,1-.26-.24,1,1,0,0,1-.25-.71,1.36,1.36,0,0,1,.11-.53,1.34,1.34,0,0,1,.32-.43,1.42,1.42,0,0,1,.49-.29,1.71,1.71,0,0,1,.65-.11,1.76,1.76,0,0,1,.33,0l.28.07a.67.67,0,0,1,.21.09l.13.08a.21.21,0,0,1,0,.06A.24.24,0,0,1,68.94,40.31Z"/><path class="cls-1" d="M72.45,41.93a.85.85,0,0,1-.48.78,1.87,1.87,0,0,1-.62.22,4.74,4.74,0,0,1-.91.07h-.38l0,.23a1.62,1.62,0,0,0,0,.21.66.66,0,0,0,.75.74,1.68,1.68,0,0,0,.41,0,1.94,1.94,0,0,0,.32-.07l.22-.07a.31.31,0,0,1,.12,0,.05.05,0,0,1,0,0s0,0,0,.06v.09l0,.1,0,.1,0,.08a.46.46,0,0,1-.16.08l-.26.08-.33.05a2,2,0,0,1-.35,0,1.86,1.86,0,0,1-.56-.07,1,1,0,0,1-.4-.22.85.85,0,0,1-.24-.37,1.62,1.62,0,0,1-.08-.52,3,3,0,0,1,0-.5,2.7,2.7,0,0,1,.39-1,1.64,1.64,0,0,1,.37-.42,1.59,1.59,0,0,1,.49-.29,1.87,1.87,0,0,1,1.14,0,1.21,1.21,0,0,1,.34.19.86.86,0,0,1,.2.27A.71.71,0,0,1,72.45,41.93Zm-.61.06a.39.39,0,0,0-.14-.3.69.69,0,0,0-.41-.11,1.07,1.07,0,0,0-.41.08,1.14,1.14,0,0,0-.32.22,1.19,1.19,0,0,0-.23.31,1.8,1.8,0,0,0-.16.38h.36a3.77,3.77,0,0,0,.63,0,1.17,1.17,0,0,0,.4-.13.42.42,0,0,0,.22-.19A.43.43,0,0,0,71.84,42Z"/><path class="cls-1" d="M75.87,41.56a.57.57,0,0,1,0,.13.5.5,0,0,1,0,.13.21.21,0,0,1-.06.1.1.1,0,0,1-.07,0,.15.15,0,0,1-.11-.06l-.14-.11-.22-.12a.84.84,0,0,0-.34-.05.91.91,0,0,0-.41.09,1,1,0,0,0-.3.25,1.33,1.33,0,0,0-.22.34,3,3,0,0,0-.14.39,2.87,2.87,0,0,0-.08.38c0,.13,0,.23,0,.32a.81.81,0,0,0,.16.56.59.59,0,0,0,.48.19,1.16,1.16,0,0,0,.4-.06,1.63,1.63,0,0,0,.47-.26.3.3,0,0,1,.14,0l0,0a.19.19,0,0,1,0,.08s0,.06,0,.1,0,.08,0,.12,0,.08,0,.12a.36.36,0,0,1-.07.1l-.15.11a1.17,1.17,0,0,1-.25.11,1.32,1.32,0,0,1-.3.09,2,2,0,0,1-.34,0,1.12,1.12,0,0,1-.86-.29,1.22,1.22,0,0,1-.29-.87,2.74,2.74,0,0,1,0-.48,2.47,2.47,0,0,1,.13-.52,2.91,2.91,0,0,1,.22-.51,1.89,1.89,0,0,1,.35-.44,1.54,1.54,0,0,1,.47-.31,1.67,1.67,0,0,1,.62-.11l.27,0,.25.06a1,1,0,0,1,.21.1l.15.11a.33.33,0,0,1,.06.08A.15.15,0,0,1,75.87,41.56Z"/><path class="cls-1" d="M79,44.5a.13.13,0,0,1,0,0l-.05,0-.08,0h-.25l-.07,0,0,0s0,0,0,0l.12-.61a1.22,1.22,0,0,1-.18.26,1.8,1.8,0,0,1-.29.25,2.12,2.12,0,0,1-.37.18,1.09,1.09,0,0,1-.4.07,1.22,1.22,0,0,1-.41-.06.77.77,0,0,1-.27-.19.58.58,0,0,1-.14-.27,1.29,1.29,0,0,1,0-.35,1.94,1.94,0,0,1,0-.24,2.17,2.17,0,0,1,0-.25l.4-2a.08.08,0,0,1,0,0,.09.09,0,0,1,.06,0l.09,0h.29l.08,0s0,0,0,0a.06.06,0,0,1,0,0l-.39,2a1.29,1.29,0,0,0,0,.19c0,.07,0,.14,0,.21a1.11,1.11,0,0,0,0,.19.52.52,0,0,0,.07.15.22.22,0,0,0,.13.1.34.34,0,0,0,.18,0,.82.82,0,0,0,.39-.11,1.29,1.29,0,0,0,.37-.3,2,2,0,0,0,.31-.46,2.64,2.64,0,0,0,.2-.58L79,41.27a.08.08,0,0,1,0,0l.06,0,.1,0h.28l.09,0a.08.08,0,0,1,0,0v0Z"/><path class="cls-1" d="M82.7,41.28a.18.18,0,0,1,0,.06s0,0,0,.09a.43.43,0,0,1,0,.11.49.49,0,0,1,0,.11l0,.08s0,0,0,0h-.07l-.07,0a.17.17,0,0,0-.1,0l-.12,0a.53.53,0,0,0-.28.11,1.68,1.68,0,0,0-.32.29,2.57,2.57,0,0,0-.28.44,2.37,2.37,0,0,0-.18.55l-.29,1.44a.05.05,0,0,1,0,0,.09.09,0,0,1-.06,0l-.09,0h-.29l-.09,0a.08.08,0,0,1,0,0v0l.64-3.23s0,0,0,0l.06,0,.09,0h.24l.08,0s0,0,0,0a.06.06,0,0,1,0,0l-.12.59a1.73,1.73,0,0,1,.19-.28,1.88,1.88,0,0,1,.25-.24,1.12,1.12,0,0,1,.28-.16.71.71,0,0,1,.28-.06h.12l.12,0,.09,0,.07,0A.14.14,0,0,1,82.7,41.28Z"/><path class="cls-1" d="M86,41.93a.84.84,0,0,1-.11.45,1,1,0,0,1-.36.33,1.87,1.87,0,0,1-.62.22A4.81,4.81,0,0,1,84,43h-.38a1,1,0,0,0,0,.23,1.62,1.62,0,0,0,0,.21.78.78,0,0,0,.18.55.76.76,0,0,0,.57.19,1.73,1.73,0,0,0,.41,0,2.21,2.21,0,0,0,.32-.07l.22-.07a.31.31,0,0,1,.12,0s0,0,0,0,0,0,0,.06a.31.31,0,0,1,0,.09.36.36,0,0,1,0,.1.42.42,0,0,1,0,.1.22.22,0,0,1,0,.08.5.5,0,0,1-.15.08l-.26.08-.33.05a2.17,2.17,0,0,1-.36,0,1.84,1.84,0,0,1-.55-.07,1,1,0,0,1-.4-.22.85.85,0,0,1-.24-.37,1.62,1.62,0,0,1-.08-.52,3,3,0,0,1,0-.5,2.6,2.6,0,0,1,.14-.53,2.13,2.13,0,0,1,.25-.5,1.82,1.82,0,0,1,.36-.42,1.77,1.77,0,0,1,.5-.29,1.87,1.87,0,0,1,1.14,0,1.21,1.21,0,0,1,.34.19.77.77,0,0,1,.25.55Zm-.6.06a.39.39,0,0,0-.14-.3.69.69,0,0,0-.41-.11,1,1,0,0,0-.41.08,1,1,0,0,0-.32.22,1.5,1.5,0,0,0-.24.31,2.5,2.5,0,0,0-.15.38h.36a3.77,3.77,0,0,0,.63,0,1.17,1.17,0,0,0,.4-.13.46.46,0,0,0,.22-.19A.43.43,0,0,0,85.4,42Z"/><path class="cls-1" d="M93.16,44.5a.05.05,0,0,1,0,0,.1.1,0,0,1,0,0l-.1,0H92.7l-.08,0a.08.08,0,0,1,0,0s0,0,0,0l.4-2,0-.2a1.15,1.15,0,0,0,0-.19.74.74,0,0,0-.08-.36.34.34,0,0,0-.31-.14.78.78,0,0,0-.37.11,1.69,1.69,0,0,0-.36.3,2,2,0,0,0-.31.46,2.39,2.39,0,0,0-.19.57L91.1,44.5a.05.05,0,0,1,0,0,.09.09,0,0,1-.06,0l-.09,0h-.29l-.08,0s0,0,0,0,0,0,0,0l.4-2,0-.21a1.41,1.41,0,0,0,0-.2.63.63,0,0,0-.09-.35.36.36,0,0,0-.3-.13.79.79,0,0,0-.38.11,2.38,2.38,0,0,0-.36.3,2.29,2.29,0,0,0-.3.46,2,2,0,0,0-.19.57L89,44.5s0,0,0,0a.1.1,0,0,1-.05,0l-.09,0h-.29l-.09,0a.08.08,0,0,1,0,0s0,0,0,0l.65-3.23a.08.08,0,0,1,0,0,.07.07,0,0,1,0,0l.08,0h.25l.07,0a.08.08,0,0,1,0,0v0l-.12.62a1.22,1.22,0,0,1,.18-.26,1.8,1.8,0,0,1,.29-.25,1.31,1.31,0,0,1,.35-.19,1.12,1.12,0,0,1,.4-.07,1.27,1.27,0,0,1,.37.05.65.65,0,0,1,.25.17.49.49,0,0,1,.15.24,1.42,1.42,0,0,1,.06.31,1.07,1.07,0,0,1,.19-.26,1.74,1.74,0,0,1,.29-.25,1.55,1.55,0,0,1,.36-.19,1.07,1.07,0,0,1,.39-.07,1.22,1.22,0,0,1,.41.06.83.83,0,0,1,.26.19.87.87,0,0,1,.14.27,1.29,1.29,0,0,1,0,.35,1.93,1.93,0,0,1,0,.24,2.34,2.34,0,0,1,0,.26Z"/><path class="cls-1" d="M97.5,41.93a.84.84,0,0,1-.11.45,1,1,0,0,1-.36.33,1.87,1.87,0,0,1-.62.22,4.81,4.81,0,0,1-.91.07h-.38a1,1,0,0,0,0,.23,1.62,1.62,0,0,0,0,.21.78.78,0,0,0,.18.55.76.76,0,0,0,.57.19,1.73,1.73,0,0,0,.41,0,2.21,2.21,0,0,0,.32-.07l.22-.07a.31.31,0,0,1,.12,0s0,0,0,0,0,0,0,.06a.31.31,0,0,1,0,.09.36.36,0,0,1,0,.1.42.42,0,0,1,0,.1.22.22,0,0,1,0,.08.5.5,0,0,1-.15.08l-.26.08-.33.05a2.17,2.17,0,0,1-.36,0,1.84,1.84,0,0,1-.55-.07,1,1,0,0,1-.4-.22.85.85,0,0,1-.24-.37,1.62,1.62,0,0,1-.08-.52,3,3,0,0,1,0-.5,2.6,2.6,0,0,1,.14-.53,2.13,2.13,0,0,1,.25-.5,1.82,1.82,0,0,1,.36-.42,1.77,1.77,0,0,1,.5-.29,1.87,1.87,0,0,1,1.14,0,1.21,1.21,0,0,1,.34.19.77.77,0,0,1,.25.55Zm-.6.06a.39.39,0,0,0-.14-.3.69.69,0,0,0-.41-.11,1,1,0,0,0-.41.08,1,1,0,0,0-.32.22,1.5,1.5,0,0,0-.24.31,2.5,2.5,0,0,0-.15.38h.36a3.77,3.77,0,0,0,.63,0,1.17,1.17,0,0,0,.4-.13.46.46,0,0,0,.22-.19A.43.43,0,0,0,96.9,42Z"/><path class="cls-1" d="M100.79,44.5a.11.11,0,0,1-.08.08.51.51,0,0,1-.21,0h-.13l-.07,0,0,0v0l.11-.61a.83.83,0,0,1-.16.26,1.68,1.68,0,0,1-.29.24,1.62,1.62,0,0,1-.37.19,1.23,1.23,0,0,1-.42.07,1.25,1.25,0,0,1-.36,0,.81.81,0,0,1-.26-.15.65.65,0,0,1-.18-.22,1.09,1.09,0,0,1-.1-.25,1.32,1.32,0,0,1,0-.26,2.18,2.18,0,0,1,0-.25,2.6,2.6,0,0,1,0-.46,2.44,2.44,0,0,1,.12-.52,3.74,3.74,0,0,1,.22-.51,2,2,0,0,1,.33-.44,1.69,1.69,0,0,1,.43-.31,1.32,1.32,0,0,1,.57-.11,1.36,1.36,0,0,1,.29,0,.85.85,0,0,1,.24.09,1.53,1.53,0,0,1,.21.14l.17.18.36-1.83s0,0,0,0l.06,0,.09,0h.29l.08,0,0,0v0Zm-.12-2.37a1.32,1.32,0,0,0-.36-.38.84.84,0,0,0-.44-.13.64.64,0,0,0-.34.09,1.23,1.23,0,0,0-.28.24,1.21,1.21,0,0,0-.2.33,3.12,3.12,0,0,0-.15.39,3.24,3.24,0,0,0-.09.4c0,.13,0,.25,0,.36a1.07,1.07,0,0,0,.11.53.41.41,0,0,0,.38.19.86.86,0,0,0,.4-.11,1.44,1.44,0,0,0,.37-.3,2,2,0,0,0,.3-.45,2,2,0,0,0,.2-.57Z"/><path class="cls-1" d="M102.65,44.5s0,0,0,0l-.06,0-.09,0h-.29l-.09,0a.08.08,0,0,1,0,0s0,0,0,0l.64-3.22a.08.08,0,0,1,0-.05l.06,0,.09,0h.29l.09,0,0,0v.05Zm.93-4.31a1.22,1.22,0,0,1,0,.17.31.31,0,0,1-.08.11.31.31,0,0,1-.13.06l-.18,0-.17,0a.14.14,0,0,1-.1-.06.28.28,0,0,1,0-.11,1.49,1.49,0,0,1,0-.17.6.6,0,0,1,.05-.16.36.36,0,0,1,.08-.12l.12-.06h.36l.1.06a.21.21,0,0,1,0,.12A.46.46,0,0,1,103.58,40.19Z"/><path class="cls-1" d="M106.75,41.56a.59.59,0,0,1,0,.13.5.5,0,0,1,0,.13l-.06.1a.12.12,0,0,1-.08,0,.14.14,0,0,1-.1-.06l-.14-.11-.23-.12a.81.81,0,0,0-.34-.05.84.84,0,0,0-.4.09A1.07,1.07,0,0,0,105,42a1.33,1.33,0,0,0-.22.34,3,3,0,0,0-.14.39,2.79,2.79,0,0,0-.07.38,2.11,2.11,0,0,0,0,.32.87.87,0,0,0,.16.56.59.59,0,0,0,.48.19,1.16,1.16,0,0,0,.4-.06.91.91,0,0,0,.28-.13,1.16,1.16,0,0,0,.2-.13.27.27,0,0,1,.13,0l0,0a.19.19,0,0,1,0,.08.38.38,0,0,1,0,.1.5.5,0,0,1,0,.12s0,.08,0,.12a.36.36,0,0,1-.07.1l-.15.11a1.17,1.17,0,0,1-.25.11,1.32,1.32,0,0,1-.3.09,1.87,1.87,0,0,1-.34,0,1.12,1.12,0,0,1-.86-.29,1.22,1.22,0,0,1-.29-.87,4.23,4.23,0,0,1,0-.48,3.3,3.3,0,0,1,.13-.52,2.34,2.34,0,0,1,.23-.51,1.62,1.62,0,0,1,.34-.44,1.67,1.67,0,0,1,.47-.31,1.71,1.71,0,0,1,.62-.11l.27,0,.25.06a1,1,0,0,1,.21.1.73.73,0,0,1,.15.11s.06.06.06.08A.14.14,0,0,1,106.75,41.56Z"/><path class="cls-1" d="M109.78,44.5a.1.1,0,0,1-.08.08.51.51,0,0,1-.21,0h-.12l-.07,0s0,0,0,0a0,0,0,0,1,0,0l.11-.61a.93.93,0,0,1-.16.25,2.37,2.37,0,0,1-.29.25,2.15,2.15,0,0,1-.37.19,1.23,1.23,0,0,1-.42.07.94.94,0,0,1-.47-.1.7.7,0,0,1-.3-.26,1,1,0,0,1-.15-.37,2,2,0,0,1,0-.43,3.91,3.91,0,0,1,0-.45,3.3,3.3,0,0,1,.13-.52,2.57,2.57,0,0,1,.21-.52,2.36,2.36,0,0,1,.33-.45,1.39,1.39,0,0,1,1-.43,1.13,1.13,0,0,1,.54.12,1.54,1.54,0,0,1,.41.36l.07-.33s0-.06.08-.08a.56.56,0,0,1,.21,0h.12l.08,0s0,0,0,0a.06.06,0,0,1,0,0Zm-.11-2.38a1.16,1.16,0,0,0-.36-.37.76.76,0,0,0-.44-.13.68.68,0,0,0-.35.09,1.32,1.32,0,0,0-.28.25,2.18,2.18,0,0,0-.2.34,3.12,3.12,0,0,0-.15.39c0,.14-.06.27-.08.4a2.3,2.3,0,0,0,0,.36,2.18,2.18,0,0,0,0,.25.83.83,0,0,0,.08.22.61.61,0,0,0,.15.17.49.49,0,0,0,.25.06.86.86,0,0,0,.4-.11,1.44,1.44,0,0,0,.37-.3,2.29,2.29,0,0,0,.3-.46,2,2,0,0,0,.2-.57Z"/><path class="cls-1" d="M111.65,44.5s0,0,0,0a.1.1,0,0,1-.05,0l-.09,0h-.29l-.09,0a.08.08,0,0,1,0,0s0,0,0,0l1-4.78s0,0,0,0a.13.13,0,0,1,.06,0l.09,0h.29l.09,0a.08.08,0,0,1,0,0v0Z"/><path class="cls-1" d="M119.48,44.5a.05.05,0,0,1,0,0,.13.13,0,0,1-.06,0l-.1,0H119l-.09,0a.08.08,0,0,1,0,0s0,0,0,0l.4-2,0-.2c0-.06,0-.12,0-.19a.64.64,0,0,0-.09-.36.34.34,0,0,0-.31-.14.82.82,0,0,0-.37.11,2.38,2.38,0,0,0-.36.3,2.29,2.29,0,0,0-.3.46,2,2,0,0,0-.2.57l-.28,1.44,0,0a.1.1,0,0,1,0,0l-.1,0H117l-.08,0a.08.08,0,0,1,0,0s0,0,0,0l.4-2a1.55,1.55,0,0,0,0-.21v-.2a.63.63,0,0,0-.09-.35.36.36,0,0,0-.3-.13.75.75,0,0,0-.37.11,1.69,1.69,0,0,0-.36.3,2,2,0,0,0-.31.46,2,2,0,0,0-.19.57l-.29,1.44a.05.05,0,0,1,0,0,.09.09,0,0,1-.06,0l-.09,0h-.29l-.09,0a.08.08,0,0,1,0,0v0l.65-3.23a.08.08,0,0,1,0,0,.1.1,0,0,1,0,0l.09,0h.24l.08,0s0,0,0,0a.06.06,0,0,1,0,0l-.13.62a1.22,1.22,0,0,1,.18-.26,1.8,1.8,0,0,1,.29-.25,1.55,1.55,0,0,1,.36-.19,1.09,1.09,0,0,1,.4-.07,1.38,1.38,0,0,1,.37.05.74.74,0,0,1,.25.17.57.57,0,0,1,.14.24,1.42,1.42,0,0,1,.06.31,1.13,1.13,0,0,1,.2-.26,1.41,1.41,0,0,1,.29-.25,1.7,1.7,0,0,1,.35-.19,1.09,1.09,0,0,1,.4-.07,1.16,1.16,0,0,1,.4.06.73.73,0,0,1,.26.19.7.7,0,0,1,.14.27,1.29,1.29,0,0,1,0,.35,1.94,1.94,0,0,1,0,.24,2.34,2.34,0,0,1,0,.26Z"/><path class="cls-1" d="M123.82,41.93a.84.84,0,0,1-.12.45.86.86,0,0,1-.35.33,1.93,1.93,0,0,1-.63.22,4.74,4.74,0,0,1-.91.07h-.37a2.23,2.23,0,0,0,0,.23c0,.08,0,.15,0,.21a.66.66,0,0,0,.75.74,1.82,1.82,0,0,0,.42,0l.31-.07.22-.07.12,0a.05.05,0,0,1,.05,0s0,0,0,.06v.09s0,.07,0,.1l0,.1a.56.56,0,0,1,0,.08.46.46,0,0,1-.16.08l-.25.08-.33.05a2.17,2.17,0,0,1-.36,0,1.91,1.91,0,0,1-.56-.07,1,1,0,0,1-.4-.22,1.08,1.08,0,0,1-.24-.37,1.62,1.62,0,0,1-.08-.52,3,3,0,0,1,0-.5,3.46,3.46,0,0,1,.14-.53,3.33,3.33,0,0,1,.25-.5,1.86,1.86,0,0,1,.37-.42,1.68,1.68,0,0,1,1.12-.4,1.53,1.53,0,0,1,.51.07,1.21,1.21,0,0,1,.34.19.73.73,0,0,1,.2.27A.71.71,0,0,1,123.82,41.93Zm-.61.06a.36.36,0,0,0-.14-.3.69.69,0,0,0-.41-.11,1.07,1.07,0,0,0-.41.08,1.14,1.14,0,0,0-.32.22,1.19,1.19,0,0,0-.23.31,1.8,1.8,0,0,0-.16.38h.36a3.77,3.77,0,0,0,.63,0,1.24,1.24,0,0,0,.41-.13.44.44,0,0,0,.21-.19A.43.43,0,0,0,123.21,42Z"/><path class="cls-1" d="M126.86,41.45a.38.38,0,0,1,0,.1.45.45,0,0,1,0,.11,1,1,0,0,1,0,.1.07.07,0,0,1-.06,0,.19.19,0,0,1-.11,0l-.14-.07a1,1,0,0,0-.21-.08,1.11,1.11,0,0,0-.28,0,.78.78,0,0,0-.28,0,.56.56,0,0,0-.2.12.52.52,0,0,0-.13.17.52.52,0,0,0,0,.21.32.32,0,0,0,.09.24,1.46,1.46,0,0,0,.24.17l.31.15a1.92,1.92,0,0,1,.31.18.92.92,0,0,1,.23.25.62.62,0,0,1,.1.37,1,1,0,0,1-.1.47,1,1,0,0,1-.28.37,1.22,1.22,0,0,1-.45.25,2.08,2.08,0,0,1-.58.08l-.32,0-.27-.07a.93.93,0,0,1-.2-.08l-.13-.09s0,0,0-.06a.19.19,0,0,1,0-.08.2.2,0,0,1,0-.07.25.25,0,0,1,0-.08.24.24,0,0,0,0-.08l0-.07,0-.05a0,0,0,0,1,0,0,.15.15,0,0,1,.11,0l.16.1a.91.91,0,0,0,.24.1,1.27,1.27,0,0,0,.37,0,1,1,0,0,0,.33,0,.55.55,0,0,0,.24-.13.49.49,0,0,0,.14-.18.62.62,0,0,0,0-.23.32.32,0,0,0-.09-.24.94.94,0,0,0-.24-.18l-.3-.15a3.07,3.07,0,0,1-.31-.17,1,1,0,0,1-.23-.26.6.6,0,0,1-.1-.37,1,1,0,0,1,.09-.44,1,1,0,0,1,.27-.35,1.09,1.09,0,0,1,.41-.23,1.42,1.42,0,0,1,.52-.08,1.23,1.23,0,0,1,.27,0l.23,0,.19.07a.35.35,0,0,1,.11.08A.12.12,0,0,1,126.86,41.45Z"/><path class="cls-1" d="M129.9,41.45s0,.06,0,.1l0,.11a.93.93,0,0,1-.05.1.07.07,0,0,1-.06,0,.16.16,0,0,1-.1,0l-.15-.07a.76.76,0,0,0-.2-.08,1.19,1.19,0,0,0-.29,0,.76.76,0,0,0-.27,0,.61.61,0,0,0-.21.12.48.48,0,0,0-.12.17.54.54,0,0,0,0,.21.3.3,0,0,0,.1.24.92.92,0,0,0,.24.17l.31.15a1.49,1.49,0,0,1,.3.18.82.82,0,0,1,.24.25.7.7,0,0,1,.09.37,1.19,1.19,0,0,1-.09.47,1,1,0,0,1-.29.37,1.26,1.26,0,0,1-.44.25,2.16,2.16,0,0,1-.59.08l-.31,0-.27-.07a1,1,0,0,1-.21-.08l-.13-.09,0-.06a.19.19,0,0,1,0-.08v-.07a.31.31,0,0,1,0-.08.24.24,0,0,1,0-.08l0-.07a.1.1,0,0,1,0-.05s0,0,0,0a.14.14,0,0,1,.1,0l.16.1a1.18,1.18,0,0,0,.25.1,1.25,1.25,0,0,0,.7,0,.58.58,0,0,0,.23-.13.4.4,0,0,0,.14-.18.64.64,0,0,0,0-.23.3.3,0,0,0-.1-.24,1.08,1.08,0,0,0-.23-.18L128.4,43a2.14,2.14,0,0,1-.3-.17.85.85,0,0,1-.24-.26.68.68,0,0,1-.09-.37,1,1,0,0,1,.09-.44,1,1,0,0,1,.26-.35,1.09,1.09,0,0,1,.41-.23,1.48,1.48,0,0,1,.53-.08,1.1,1.1,0,0,1,.26,0l.23,0,.19.07.12.08A.16.16,0,0,1,129.9,41.45Z"/><path class="cls-1" d="M133.57,41.93a.84.84,0,0,1-.12.45.86.86,0,0,1-.35.33,1.93,1.93,0,0,1-.63.22,4.7,4.7,0,0,1-.9.07h-.38a2.23,2.23,0,0,0,0,.23c0,.08,0,.15,0,.21a.66.66,0,0,0,.75.74,1.82,1.82,0,0,0,.42,0l.31-.07.22-.07a.31.31,0,0,1,.12,0,.05.05,0,0,1,0,0s0,0,0,.06v.09s0,.07,0,.1l0,.1a.56.56,0,0,1-.05.08.5.5,0,0,1-.15.08l-.26.08-.33.05a2.17,2.17,0,0,1-.36,0,1.91,1.91,0,0,1-.56-.07,1,1,0,0,1-.4-.22,1.08,1.08,0,0,1-.24-.37,1.64,1.64,0,0,1-.07-.52,3,3,0,0,1,0-.5,3.46,3.46,0,0,1,.14-.53,3.33,3.33,0,0,1,.25-.5,1.86,1.86,0,0,1,.37-.42,1.68,1.68,0,0,1,1.12-.4,1.53,1.53,0,0,1,.51.07,1.21,1.21,0,0,1,.34.19.73.73,0,0,1,.2.27A.71.71,0,0,1,133.57,41.93ZM133,42a.36.36,0,0,0-.14-.3.67.67,0,0,0-.41-.11,1.07,1.07,0,0,0-.41.08,1,1,0,0,0-.31.22,1,1,0,0,0-.24.31,1.8,1.8,0,0,0-.16.38h.36a3.69,3.69,0,0,0,.63,0,1.24,1.24,0,0,0,.41-.13.44.44,0,0,0,.21-.19A.43.43,0,0,0,133,42Z"/><path class="cls-1" d="M137.32,42a1.94,1.94,0,0,1,0,.24,1.17,1.17,0,0,1,0,.26l-.4,2a.05.05,0,0,1,0,0,.09.09,0,0,1-.06,0l-.09,0h-.29l-.08,0s0,0,0,0,0,0,0,0l.4-2a1.92,1.92,0,0,0,0-.22,1.21,1.21,0,0,0,0-.18.61.61,0,0,0-.09-.35.36.36,0,0,0-.31-.14.82.82,0,0,0-.39.11,1.74,1.74,0,0,0-.37.3,2.29,2.29,0,0,0-.3.46,2,2,0,0,0-.2.57l-.29,1.44a.05.05,0,0,1,0,0,.1.1,0,0,1-.05,0l-.1,0h-.29l-.08,0s0,0,0,0,0,0,0,0l.65-3.23a.08.08,0,0,1,0,0,.1.1,0,0,1,0,0l.09,0h.24l.08,0s0,0,0,0a.06.06,0,0,1,0,0l-.12.62a.88.88,0,0,1,.17-.26,1.8,1.8,0,0,1,.29-.25,1.62,1.62,0,0,1,.37-.19,1.23,1.23,0,0,1,.42-.07,1,1,0,0,1,.4.07.65.65,0,0,1,.26.19.69.69,0,0,1,.15.28A1.66,1.66,0,0,1,137.32,42Z"/><path class="cls-1" d="M140.74,44.75a1.48,1.48,0,0,1-.18.5,1.38,1.38,0,0,1-.32.36,1.68,1.68,0,0,1-.47.21,2.62,2.62,0,0,1-1.16,0,1.46,1.46,0,0,1-.39-.14.23.23,0,0,1-.07-.07s0,0,0-.09v-.06a.25.25,0,0,1,0-.08s0,0,0-.08l0-.08s0,0,.05,0l.06,0a.19.19,0,0,1,.11,0l.17.08.27.09a2.13,2.13,0,0,0,.39,0,1.78,1.78,0,0,0,.35,0,1.11,1.11,0,0,0,.27-.12.61.61,0,0,0,.19-.2.83.83,0,0,0,.11-.29q.06-.33.12-.54c0-.14.08-.25.1-.33a1,1,0,0,1-.18.26,1.41,1.41,0,0,1-.29.25,1.22,1.22,0,0,1-.36.18,1.12,1.12,0,0,1-.4.07,1.08,1.08,0,0,1-.46-.09.89.89,0,0,1-.3-.24,1,1,0,0,1-.16-.37,2.16,2.16,0,0,1,0-.46,2.79,2.79,0,0,1,0-.47,3.59,3.59,0,0,1,.13-.52,2.81,2.81,0,0,1,.22-.51,1.78,1.78,0,0,1,.32-.44,1.55,1.55,0,0,1,.44-.32,1.25,1.25,0,0,1,.56-.11,1.18,1.18,0,0,1,.55.12,1.5,1.5,0,0,1,.4.36l.07-.33s0-.06.08-.08a.62.62,0,0,1,.21,0h.12a.15.15,0,0,1,.08,0,.08.08,0,0,1,0,0v0Zm-.05-2.63a1.3,1.3,0,0,0-.37-.37.74.74,0,0,0-.44-.13.67.67,0,0,0-.34.09.92.92,0,0,0-.28.24,1.63,1.63,0,0,0-.21.34c-.05.13-.1.26-.14.4a2.83,2.83,0,0,0-.08.4,2.38,2.38,0,0,0,0,.36,1.27,1.27,0,0,0,0,.28.63.63,0,0,0,.08.22.46.46,0,0,0,.16.15.52.52,0,0,0,.23,0,.82.82,0,0,0,.39-.11,1.17,1.17,0,0,0,.37-.3,2,2,0,0,0,.31-.46,2.12,2.12,0,0,0,.19-.57Z"/><path class="cls-1" d="M145.15,41.93a.94.94,0,0,1-.11.45,1,1,0,0,1-.36.33,1.87,1.87,0,0,1-.62.22,4.88,4.88,0,0,1-.91.07h-.38a2.23,2.23,0,0,0,0,.23v.21a.82.82,0,0,0,.17.55.79.79,0,0,0,.58.19,1.73,1.73,0,0,0,.41,0,2.21,2.21,0,0,0,.32-.07l.22-.07a.24.24,0,0,1,.11,0,.05.05,0,0,1,.05,0,.08.08,0,0,1,0,.06.31.31,0,0,1,0,.09.36.36,0,0,1,0,.1.42.42,0,0,1,0,.1.22.22,0,0,1,0,.08.5.5,0,0,1-.15.08l-.26.08-.33.05a2.17,2.17,0,0,1-.36,0,1.91,1.91,0,0,1-.56-.07,1,1,0,0,1-.4-.22.93.93,0,0,1-.23-.37,1.39,1.39,0,0,1-.08-.52,3,3,0,0,1,0-.5,3.46,3.46,0,0,1,.14-.53,3.33,3.33,0,0,1,.25-.5,2.14,2.14,0,0,1,.37-.42,1.72,1.72,0,0,1,.49-.29,1.61,1.61,0,0,1,.63-.11,1.53,1.53,0,0,1,.51.07,1.28,1.28,0,0,1,.35.19.83.83,0,0,1,.19.27A.71.71,0,0,1,145.15,41.93Zm-.6.06a.37.37,0,0,0-.15-.3.66.66,0,0,0-.4-.11,1.08,1.08,0,0,0-.42.08,1.1,1.1,0,0,0-.31.22,1.5,1.5,0,0,0-.24.31,2.54,2.54,0,0,0-.16.38h.37a3.77,3.77,0,0,0,.63,0,1.25,1.25,0,0,0,.4-.13.44.44,0,0,0,.21-.19A.36.36,0,0,0,144.55,42Z"/><path class="cls-1" d="M148.22,41.28v.06a.64.64,0,0,0,0,.09.43.43,0,0,1,0,.11l0,.11a.56.56,0,0,1-.05.08.05.05,0,0,1,0,0H148l-.08,0-.09,0-.13,0a.56.56,0,0,0-.28.11,1.39,1.39,0,0,0-.31.29,2.08,2.08,0,0,0-.28.44,2,2,0,0,0-.19.55l-.28,1.44,0,0a.1.1,0,0,1,0,0l-.1,0h-.29l-.08,0s0,0,0,0,0,0,0,0l.64-3.23a.08.08,0,0,1,0,0,.1.1,0,0,1,.05,0l.09,0h.25l.07,0a.08.08,0,0,1,0,0v0l-.12.59a1.79,1.79,0,0,1,.2-.28,1.36,1.36,0,0,1,.24-.24,1.12,1.12,0,0,1,.28-.16.71.71,0,0,1,.28-.06h.13l.11,0,.1,0,.06,0A.14.14,0,0,1,148.22,41.28Z"/></g><rect class="cls-1" x="1.25" y="1.25" width="49.5" height="49.5" rx="7.98"/><path class="cls-3" d="M42.77,52H9.23A9.24,9.24,0,0,1,0,42.77V9.23A9.24,9.24,0,0,1,9.23,0H42.77A9.24,9.24,0,0,1,52,9.23V42.77A9.24,9.24,0,0,1,42.77,52ZM9.23,2.5A6.74,6.74,0,0,0,2.5,9.23V42.77A6.74,6.74,0,0,0,9.23,49.5H42.77a6.74,6.74,0,0,0,6.73-6.73V9.23A6.74,6.74,0,0,0,42.77,2.5Z"/><circle class="cls-1" cx="44" cy="8.35" r="6.7"/><path class="cls-3" d="M44,15.8a7.45,7.45,0,1,1,7.45-7.45A7.46,7.46,0,0,1,44,15.8ZM44,2.4a5.95,5.95,0,1,0,6,5.95A6,6,0,0,0,44,2.4Z"/><path class="cls-4" d="M43.63,9.59v.08s0,0,0,.06l0,0,0,.05-.12.09a1.5,1.5,0,0,1-.22.11,1.4,1.4,0,0,1-.31.09,1.53,1.53,0,0,1-.38,0,1.62,1.62,0,0,1-.64-.12,1.16,1.16,0,0,1-.49-.35,1.42,1.42,0,0,1-.31-.57A2.37,2.37,0,0,1,41,8.33a2.91,2.91,0,0,1,.11-.82,1.93,1.93,0,0,1,.33-.6,1.48,1.48,0,0,1,.51-.38,1.76,1.76,0,0,1,.66-.13l.3,0,.28.08.23.1a.53.53,0,0,1,.13.1s0,0,0,.06a.08.08,0,0,1,0,0,.15.15,0,0,1,0,.07.22.22,0,0,1,0,.09.25.25,0,0,1,0,.09.14.14,0,0,1,0,.07.05.05,0,0,1,0,0h0s-.06,0-.11-.06L43.23,7,43,6.88a1.4,1.4,0,0,0-.38,0,1.1,1.1,0,0,0-.45.09.94.94,0,0,0-.34.29,1.31,1.31,0,0,0-.22.46,2.41,2.41,0,0,0-.08.63,2.25,2.25,0,0,0,.08.61,1.34,1.34,0,0,0,.21.45.92.92,0,0,0,.35.27,1.11,1.11,0,0,0,.46.09A1.4,1.4,0,0,0,43,9.67l.28-.12.19-.12a.22.22,0,0,1,.12-.06h0l0,0a.64.64,0,0,1,0,.07Z"/><path class="cls-4" d="M46.6,6.66s0,.06,0,.09a.08.08,0,0,1,0,.06l0,0H45.47V10s0,0,0,0l0,0-.07,0h-.24l-.07,0,0,0s0,0,0,0V6.86H43.92a.08.08,0,0,1,0,0,.35.35,0,0,1,0-.06.28.28,0,0,1,0-.09.31.31,0,0,1,0-.1s0,0,0-.06a.08.08,0,0,1,0,0h2.62l0,0a.11.11,0,0,1,0,.06S46.6,6.62,46.6,6.66Z"/><path class="cls-4" d="M26.31,32.17c0,.12,0,.22,0,.31s0,.17,0,.24a.89.89,0,0,1-.08.17.77.77,0,0,1-.15.19,2.89,2.89,0,0,1-.47.34,5.24,5.24,0,0,1-.89.45,7.57,7.57,0,0,1-1.21.37,7.06,7.06,0,0,1-1.5.15,6.59,6.59,0,0,1-2.53-.47,5,5,0,0,1-1.93-1.38,6.37,6.37,0,0,1-1.23-2.26,10.31,10.31,0,0,1-.42-3.09,10.17,10.17,0,0,1,.46-3.2,7,7,0,0,1,1.3-2.38,5.42,5.42,0,0,1,2-1.48,6.31,6.31,0,0,1,2.57-.52,6.08,6.08,0,0,1,1.22.12,7.82,7.82,0,0,1,1.09.3,4.88,4.88,0,0,1,.89.41,3.27,3.27,0,0,1,.54.38,1.49,1.49,0,0,1,.2.23.69.69,0,0,1,.07.19,1.45,1.45,0,0,1,0,.25,1.72,1.72,0,0,1,0,.34,3.79,3.79,0,0,1,0,.38,1.38,1.38,0,0,1-.07.26.38.38,0,0,1-.11.16.25.25,0,0,1-.15.05.78.78,0,0,1-.43-.22c-.19-.14-.43-.3-.73-.48a6.4,6.4,0,0,0-1.07-.48,4.85,4.85,0,0,0-1.52-.21,3.9,3.9,0,0,0-1.75.38,3.66,3.66,0,0,0-1.35,1.13,5.81,5.81,0,0,0-.87,1.82,9.19,9.19,0,0,0-.31,2.46,8.85,8.85,0,0,0,.3,2.42A5.07,5.07,0,0,0,19,31.26a3.55,3.55,0,0,0,1.36,1.07,4.46,4.46,0,0,0,1.83.36,4.85,4.85,0,0,0,1.5-.21,6.05,6.05,0,0,0,1.1-.47c.3-.18.55-.33.75-.47a.82.82,0,0,1,.46-.22.2.2,0,0,1,.13,0,.19.19,0,0,1,.09.12,1.46,1.46,0,0,1,.05.27C26.3,31.86,26.31,32,26.31,32.17Z"/><path class="cls-4" d="M36.86,23.88a.38.38,0,0,1,0,.1s0,.06,0,.1l0,.12c0,.05,0,.1,0,.15l-3.42,9.52a.61.61,0,0,1-.12.21.51.51,0,0,1-.22.12,1.58,1.58,0,0,1-.36.06l-.56,0a4.39,4.39,0,0,1-.56,0,1.49,1.49,0,0,1-.36-.06.48.48,0,0,1-.22-.13.52.52,0,0,1-.12-.19l-3.41-9.52-.07-.23a.64.64,0,0,1,0-.15.34.34,0,0,1,0-.09.24.24,0,0,1,0-.15.29.29,0,0,1,.16-.11.93.93,0,0,1,.27-.05h.43a3.79,3.79,0,0,1,.52,0,1,1,0,0,1,.3.06.38.38,0,0,1,.16.11,1.14,1.14,0,0,1,.09.16l2.83,8.27,0,.13,0-.13L35,23.91a.39.39,0,0,1,.07-.16.38.38,0,0,1,.16-.11,1.05,1.05,0,0,1,.29-.06,3.48,3.48,0,0,1,.49,0h.42a.77.77,0,0,1,.26.06.32.32,0,0,1,.14.1A.33.33,0,0,1,36.86,23.88Z"/></svg>